<?xml version="1.0" encoding="UTF-8"?>
<svg version="1.1" xmlns="http://www.w3.org/2000/svg" width="1024" height="1024">
<path d="M0 0 C337.92 0 675.84 0 1024 0 C1024 337.92 1024 675.84 1024 1024 C686.08 1024 348.16 1024 0 1024 C0 686.08 0 348.16 0 0 Z " fill="#6C4EFE" transform="translate(0,0)"/>
<path d="M0 0 C0 0.66 0 1.32 0 2 C0.598125 2.25652344 1.19625 2.51304687 1.8125 2.77734375 C8.65346176 6.60095273 12.42073067 15.63789601 14.54101562 22.83691406 C15.86697899 27.60992652 17.0721054 32.41339806 18.28613281 37.21582031 C19.53707857 42.09467988 20.86810197 46.95179967 22.1875 51.8125 C25.19889099 62.97062063 28.17447447 74.13814023 31.125 85.3125 C31.34217682 86.13488159 31.55935364 86.95726318 31.78311157 87.80456543 C34.47662902 98.02063377 37.07150029 108.24784733 39.44750977 118.54321289 C40.73120833 124.05065645 42.31021963 129.41223629 44.04296875 134.796875 C45.14874565 138.49784257 46.02354457 142.23471335 46.875 146 C48.28177864 152.19121201 49.90045627 158.2830784 51.6875 164.375 C54.45458382 173.84563113 56.9373117 183.37817548 59.375 192.9375 C62.19043694 203.97519358 65.04379048 214.99896293 68 226 C71.38309897 238.59264615 74.64572484 251.21373463 77.85546875 263.8515625 C79.8064978 271.51020528 81.87349797 279.11867996 84.07080078 286.71142578 C85.5024455 291.77822934 86.75596589 296.88449043 88 302 C88.47579749 303.92987627 88.9523597 305.85956416 89.4296875 307.7890625 C89.66478027 308.73982666 89.89987305 309.69059082 90.14208984 310.67016602 C92.12443241 318.66226865 94.12941583 326.63991979 96.375 334.5625 C98.65036697 342.59200066 100.73949597 350.66618468 102.8125 358.75 C105.4725499 369.11739008 108.17107834 379.47282702 110.9375 389.8125 C111.26395508 391.03267822 111.59041016 392.25285645 111.92675781 393.51000977 C112.60054207 396.02784377 113.27437086 398.54566586 113.94824219 401.06347656 C115.83016715 408.10202617 117.69671119 415.14465927 119.5625 422.1875 C119.84530319 423.25405823 119.84530319 423.25405823 120.13381958 424.34216309 C122.11975003 431.83400802 124.09096833 439.32909911 126.01953125 446.8359375 C126.49120728 448.67055542 126.49120728 448.67055542 126.97241211 450.54223633 C127.55307338 452.80692523 128.13093894 455.07233376 128.70532227 457.33862305 C130.23858048 463.32370577 131.97146984 469.16342071 134 475 C137.59939608 466.51360054 140.35925276 457.82118221 143 449 C143.27247559 448.0934668 143.54495117 447.18693359 143.82568359 446.25292969 C147.24913676 434.82100728 150.53195889 423.37707115 153.31445312 411.77050781 C154.46302577 407.00125543 155.7781414 402.3129727 157.20996094 397.62109375 C158.62882061 392.91377687 159.93188431 388.17381846 161.25 383.4375 C161.86967101 381.21481011 162.48946613 378.99215481 163.109375 376.76953125 C163.42326172 375.64369629 163.73714844 374.51786133 164.06054688 373.35791016 C164.95597221 370.15736962 165.85917048 366.9591509 166.765625 363.76171875 C169.82896054 352.93454573 172.77254519 342.08852077 175.5625 331.1875 C186.8685232 287.38874586 186.8685232 287.38874586 200 273 C200.68835938 272.24332031 201.37671875 271.48664063 202.0859375 270.70703125 C214.40740972 257.80191035 231.49235713 247.58518907 249.6764679 246.89900208 C252.89403911 246.85140666 256.11020015 246.83519349 259.328125 246.83203125 C260.51291443 246.82870285 261.69770386 246.82537445 262.918396 246.82194519 C265.41971449 246.81689466 267.92103969 246.81453628 270.42236328 246.81469727 C274.22309647 246.81251544 278.02353702 246.79435217 281.82421875 246.77539062 C284.26301985 246.77245528 286.70182232 246.77047143 289.140625 246.76953125 C290.26494934 246.76234573 291.38927368 246.75516022 292.54766846 246.74775696 C314.55303756 246.81057715 314.55303756 246.81057715 321.65234375 253.57421875 C328.95222647 261.80220392 330.48634359 268.38860552 330.28125 279.29296875 C329.91860503 284.07283093 328.79777429 287.16567327 326 291 C325.2575 292.051875 324.515 293.10375 323.75 294.1875 C317.92766946 300.14215623 312.57451655 302.737999 304.20632935 303.13130188 C303.24894867 303.13478134 302.29156799 303.1382608 301.30517578 303.1418457 C300.21028839 303.14888016 299.115401 303.15591461 297.98733521 303.16316223 C296.23403397 303.16940865 296.23403397 303.16940865 294.4453125 303.17578125 C291.94921027 303.19897469 289.45311649 303.22309183 286.95703125 303.24804688 C283.03786514 303.28316661 279.11901146 303.31252049 275.19970703 303.32592773 C271.40619563 303.34142995 267.61358491 303.38164716 263.8203125 303.42578125 C262.07308395 303.42291862 262.07308395 303.42291862 260.29055786 303.41999817 C252.27938027 303.53996985 247.31089869 304.88657317 240.75 309.625 C235.71176975 316.46259819 234.14204334 325.02745386 232.19140625 333.140625 C228.87636623 346.84163029 225.14093436 360.46380434 221 373.9375 C218.27965306 382.79064641 215.96907977 391.73019863 213.68237305 400.70385742 C211.43953663 409.44826046 208.98137766 418.11337824 206.41870117 426.76879883 C204.48812551 433.29373906 202.68641617 439.83461669 200.96484375 446.41796875 C199.85225905 450.54849577 198.654085 454.64914159 197.4375 458.75 C194.99442708 466.99136044 192.67134287 475.24147452 190.62426758 483.59179688 C189.14139792 489.6305932 187.55564522 495.61055834 185.75 501.5625 C183.25491276 509.81119876 181.12920961 518.15123106 179 526.5 C176.5657123 536.03539634 174.082012 545.53582025 171.20703125 554.94921875 C170.26076084 558.06019086 169.40683278 561.18876056 168.57421875 564.33203125 C166.05741841 573.73032373 163.66977381 581.95643535 158 590 C157.73574219 590.67546875 157.47148438 591.3509375 157.19921875 592.046875 C155.42000334 594.94461997 153.10212162 595.75427235 150.0625 597.1875 C149.00160156 597.69667969 147.94070313 598.20585938 146.84765625 598.73046875 C139.68886196 601.92197512 131.03401467 602.41426105 123.5625 599.75 C111.42628686 593.78835144 106.57521139 584.34208122 102 572 C100.78473095 568.07583885 99.78433844 564.11562897 98.8125 560.125 C98.21716394 557.76016013 97.62074356 555.39559306 97.0234375 553.03125 C96.70342773 551.75507812 96.38341797 550.47890625 96.05371094 549.1640625 C94.07284035 541.30282126 92.00013201 533.46509316 89.9375 525.625 C89.71994049 524.79671692 89.50238098 523.96843384 89.27822876 523.11505127 C86.73421385 513.43636059 84.13042252 503.78481888 81.32128906 494.17919922 C78.54464366 484.5911554 76.06382336 474.92373146 73.53814697 465.26733398 C70.54518793 453.82757942 67.50153448 442.4039795 64.375 431 C58.6185996 409.98943698 53.00422347 388.94452959 47.578125 367.84594727 C45.33330312 359.16840379 42.92757577 350.5418288 40.48413086 341.91845703 C38.49452309 334.862101 36.65717955 327.78193031 34.91137695 320.66186523 C31.16945601 305.47139394 26.93182292 290.40394974 22.8125 275.3125 C21.87445998 271.87514699 20.93689445 268.43766542 20 265 C19.65324219 263.72769531 19.30648438 262.45539063 18.94921875 261.14453125 C15.17277298 247.14215415 11.73391509 233.0509184 8.26953125 218.96875 C5.477825 207.65808639 2.60867011 196.39781033 -0.66015625 185.21533203 C-6.71905452 164.32409136 -11.77147362 143.10987407 -17 122 C-17.43699219 123.92585938 -17.43699219 123.92585938 -17.8828125 125.890625 C-20.23085689 136.07616577 -22.83421202 146.11260844 -25.90649414 156.10400391 C-27.51754466 161.3510081 -28.95732791 166.60286659 -30.23828125 171.94140625 C-31.16689225 175.67013657 -32.2068019 179.36467295 -33.25 183.0625 C-35.40680119 190.72158105 -37.40295444 198.4164918 -39.375 206.125 C-42.14203457 216.90262607 -45.14003086 227.59198072 -48.30859375 238.2578125 C-49.44224698 242.07636577 -50.53765143 245.90254154 -51.59765625 249.7421875 C-54.18048419 259.08929208 -56.72555133 268.25569929 -61 277 C-61.49242187 278.06734375 -61.98484375 279.1346875 -62.4921875 280.234375 C-74.39652352 303.61978177 -97.79730342 318.17384182 -121.8125 326.875 C-133.46104097 330.19943471 -144.97553714 330.29726341 -156.9765625 330.265625 C-158.79633638 330.26697554 -160.61610991 330.2689193 -162.43588257 330.27142334 C-166.2297513 330.27435482 -170.02352519 330.27014006 -173.81738281 330.26074219 C-178.65661963 330.2493325 -183.49563489 330.25592935 -188.33486366 330.26788712 C-192.08572024 330.27514541 -195.83652506 330.2727999 -199.58738327 330.26763153 C-201.37099611 330.26630685 -203.15461381 330.26790086 -204.93822098 330.27259064 C-230.46864705 330.32502125 -230.46864705 330.32502125 -240 323 C-246.73371524 315.91931852 -250.1142051 308.83591429 -250 299 C-248.4687263 290.31002174 -244.6479192 284.17238419 -238.07421875 278.39453125 C-232.17534883 274.42862436 -227.21279386 273.5666421 -220.2734375 273.6628418 C-219.42844193 273.6622879 -218.58344635 273.66173401 -217.71284485 273.66116333 C-215.88719507 273.66142217 -214.06153667 273.66825462 -212.2359314 273.68100548 C-209.33259861 273.69948869 -206.42998265 273.6966797 -203.52661133 273.6879425 C-195.27495191 273.66621875 -187.02356828 273.67683278 -178.77197266 273.71508789 C-173.71266832 273.73705153 -168.65406774 273.72948448 -163.5947876 273.7046299 C-161.68132307 273.70106849 -159.76780108 273.7085232 -157.85443115 273.72788048 C-144.75495421 273.85775514 -132.16823059 273.25037261 -121.71362305 264.29570007 C-119 262 -119 262 -117 262 C-116.62101562 261.21302734 -116.62101562 261.21302734 -116.234375 260.41015625 C-115.29615032 258.57824288 -114.29475384 256.77852635 -113.265625 254.99609375 C-103.41677292 237.80412193 -99.44195013 218.51855075 -94.62286377 199.46075439 C-92.50350292 191.08777337 -90.37172058 182.71793777 -88.24172974 174.34765625 C-87.3946591 171.01484889 -86.55051129 167.68131213 -85.70678711 164.34765625 C-83.12729582 154.17896051 -80.48794968 144.03824924 -77.63902283 133.94158936 C-76.03660503 128.22774472 -74.67643161 122.48920512 -73.4375 116.6875 C-71.91923849 109.79166571 -70.18021714 103.08966801 -68.0078125 96.3671875 C-66.79024355 92.29918582 -65.82899278 88.19890239 -64.875 84.0625 C-62.44931908 73.59283307 -59.73928858 63.2034603 -57 52.8125 C-56.79066833 52.01651398 -56.58133667 51.22052795 -56.36566162 50.40042114 C-55.13259154 45.71510462 -53.88687945 41.03337537 -52.62939453 36.35455322 C-51.98344511 33.93806848 -51.34920384 31.51867099 -50.71484375 29.09912109 C-50.28957363 27.50735033 -49.8638095 25.91571146 -49.4375 24.32421875 C-49.251875 23.60539017 -49.06625 22.88656158 -48.875 22.14595032 C-47.49456947 17.05572431 -45.4742272 12.65977277 -43 8 C-42.34 8 -41.68 8 -41 8 C-40.74863281 7.40445313 -40.49726563 6.80890625 -40.23828125 6.1953125 C-37.43720787 1.22937169 -31.39429086 -2.43849475 -26 -4 C-16.35828627 -6.09602472 -8.7290548 -4.3645274 0 0 Z " fill="#FEFDFE" transform="translate(476,205)"/>
<path d="M0 0 C0.33 0 0.66 0 1 0 C1.10957031 1.01578125 1.21914063 2.0315625 1.33203125 3.078125 C4.49818613 31.15205024 15.44262831 55.41329296 35 76 C35.88042969 76.93328125 36.76085938 77.8665625 37.66796875 78.828125 C43.3647679 84.70972864 49.12185345 89.57910081 56 94 C56.81597656 94.57234375 57.63195313 95.1446875 58.47265625 95.734375 C74.42544844 106.61018506 93.11751132 111.28206602 112 114 C112 114.33 112 114.66 112 115 C75.04 115 38.08 115 0 115 C0 77.05 0 39.1 0 0 Z " fill="#FDFCFE" transform="translate(0,909)"/>
<path d="M0 0 C37.62 0 75.24 0 114 0 C114 0.33 114 0.66 114 1 C113.36610352 1.10022461 112.73220703 1.20044922 112.07910156 1.30371094 C90.78041914 4.71552312 73.07367721 10.33609724 54.8203125 21.96875 C53 23 53 23 51 23 C51 23.66 51 24.32 51 25 C49.671875 26.0859375 49.671875 26.0859375 47.75 27.375 C30.954233 39.58468878 18.60329912 57.33025565 10 76 C9.57976563 76.86367187 9.15953125 77.72734375 8.7265625 78.6171875 C4.5669057 87.71801238 2.83047025 97.2238572 1 107 C0.67 107 0.34 107 0 107 C0 71.69 0 36.38 0 0 Z " fill="#FCFDFE" transform="translate(0,0)"/>
<path d="M0 0 C0.33 0 0.66 0 1 0 C1 37.62 1 75.24 1 114 C-34.31 114 -69.62 114 -106 114 C-102.9243005 112.46215025 -100.9215739 111.62937139 -97.69140625 110.921875 C-82.55604184 107.46397166 -70.30166958 102.12083062 -57 94 C-56.08476563 93.46761719 -55.16953125 92.93523437 -54.2265625 92.38671875 C-28.76727224 77.10384967 -11.02524126 49.88613149 -3.47070312 21.52856445 C-1.71903309 14.42939993 -0.71863764 7.27218386 0 0 Z " fill="#FEFCFE" transform="translate(1023,910)"/>
<path d="M0 0 C34.98 0 69.96 0 106 0 C106 37.29 106 74.58 106 113 C105.67 113 105.34 113 105 113 C104.87882813 111.94941406 104.75765625 110.89882812 104.6328125 109.81640625 C104.12916056 105.53868158 103.57799578 101.26827655 103 97 C102.89042969 96.1853125 102.78085937 95.370625 102.66796875 94.53125 C100.19777731 80.8501897 92.66981456 65.69779872 84.265625 54.73828125 C83 53 83 53 83 51 C82.34 51 81.68 51 81 51 C79.43318111 49.05051572 77.96087353 47.08896302 76.5 45.0625 C58.03269454 20.32632206 29.35187602 7.26027702 0 1 C0 0.67 0 0.34 0 0 Z " fill="#FDFDFE" transform="translate(918,0)"/>
<path d="M0 0 C2.31 0.33 4.62 0.66 7 1 C3.21306654 4.78693346 -1.26585519 4.18109591 -6.29516602 4.23706055 C-7.14095215 4.25017273 -7.98673828 4.26328491 -8.8581543 4.27679443 C-11.65669212 4.31861001 -14.45525866 4.35310333 -17.25390625 4.38671875 C-19.19539054 4.41236925 -21.13687307 4.43815327 -23.07835388 4.46406555 C-27.14782275 4.51703976 -31.21731841 4.56596915 -35.28686523 4.61254883 C-40.51175162 4.67302158 -45.73634461 4.74722966 -50.96099949 4.82492352 C-54.96966813 4.88239959 -58.97840851 4.93075432 -62.98722649 4.976511 C-64.9142576 4.99997364 -66.84125129 5.02674395 -68.76819038 5.05682945 C-71.45685915 5.09781138 -74.14537055 5.12609848 -76.83422852 5.15112305 C-77.63583908 5.16609329 -78.43744965 5.18106354 -79.26335144 5.19648743 C-81.17665703 5.20754029 -83.09002897 5.11345093 -85 5 C-85.66 4.34 -86.32 3.68 -87 3 C-81.51630952 1.45103486 -76.55316408 0.71508296 -70.83984375 0.77294922 C-70.06814346 0.77265717 -69.29644318 0.77236511 -68.50135803 0.77206421 C-65.97995297 0.77344469 -63.4588527 0.78894467 -60.9375 0.8046875 C-59.17773602 0.8084222 -57.41796994 0.81126701 -55.65820312 0.81326294 C-51.04850424 0.82086342 -46.43893333 0.84048077 -41.82928467 0.8626709 C-37.11667613 0.88320691 -32.40404673 0.89228118 -27.69140625 0.90234375 C-18.46088157 0.92373034 -9.23045147 0.95782256 0 1 C0 0.67 0 0.34 0 0 Z " fill="#4B43CE" transform="translate(334,475)"/>
<path d="M0 0 C-1.0625 1.5 -1.0625 1.5 -3 3 C-6.4375 3.125 -6.4375 3.125 -10 3 C-12.2875976 3.27640014 -12.2875976 3.27640014 -14 4 C-14.33 4.66 -14.66 5.32 -15 6 C-18 6 -21 6 -24 6 C-25.68272986 6.62501395 -27.34630643 7.30177383 -29 8 C-33.29171367 9.70623911 -37.41244295 11.28319421 -42 12 C-42 12.66 -42 13.32 -42 14 C-43.134375 14.45375 -44.26875 14.9075 -45.4375 15.375 C-49.04721692 16.57095806 -49.04721692 16.57095806 -50 19 C-51.98 19 -53.96 19 -56 19 C-53.20456148 15.60100089 -49.37078256 13.95777141 -45.5 12.0625 C-44.77659424 11.70768555 -44.05318848 11.35287109 -43.30786133 10.98730469 C-34.46766849 6.71128305 -25.84134704 3.83360274 -16.25 1.75 C-15.44522217 1.57436523 -14.64044434 1.39873047 -13.8112793 1.21777344 C-9.10914541 0.25388224 -4.7985246 -0.17962392 0 0 Z " fill="#385AE2" transform="translate(114,1)"/>
<path d="M0 0 C-0.33 0.66 -0.66 1.32 -1 2 C-3.475 1.505 -3.475 1.505 -6 1 C-6.33 1.66 -6.66 2.32 -7 3 C-7.99 2.67 -8.98 2.34 -10 2 C-11.40550624 1.89652547 -12.81517 1.84440412 -14.22436523 1.82641602 C-15.07212021 1.81292618 -15.91987518 1.79943634 -16.7933197 1.78553772 C-18.16213036 1.76988014 -18.16213036 1.76988014 -19.55859375 1.75390625 C-21.49023901 1.72097407 -23.42187953 1.68776232 -25.35351562 1.65429688 C-28.39946291 1.60684609 -31.44539006 1.56239845 -34.49145508 1.52319336 C-37.43070286 1.48348986 -40.36956068 1.43194831 -43.30859375 1.37890625 C-44.21910995 1.3704921 -45.12962616 1.36207794 -46.06773376 1.35340881 C-46.9186409 1.33676682 -47.76954803 1.32012482 -48.64624023 1.30297852 C-49.39219955 1.29267105 -50.13815887 1.28236359 -50.90672302 1.27174377 C-53.28049247 0.9635872 -54.93011258 0.17524362 -57 -1 C-49.52553454 -1.19361221 -42.0508109 -1.37101689 -34.57568359 -1.53710938 C-32.03230057 -1.59554064 -29.48900025 -1.65769438 -26.94580078 -1.72363281 C-23.29214534 -1.81771836 -19.63840253 -1.89845275 -15.984375 -1.9765625 C-14.84570984 -2.00875885 -13.70704468 -2.0409552 -12.53387451 -2.0741272 C-11.47307678 -2.09429901 -10.41227905 -2.11447083 -9.31933594 -2.13525391 C-8.38667908 -2.15746002 -7.45402222 -2.17966614 -6.49310303 -2.20254517 C-3.85631622 -1.98832681 -2.25648826 -1.34174371 0 0 Z " fill="#6435E3" transform="translate(787,509)"/>
<path d="M0 0 C0 6.13042458 -4.86408325 11.25518111 -8.48046875 15.93359375 C-10.50157675 18.68209281 -12.21816119 21.57814607 -13.921875 24.53125 C-14.27765625 25.0159375 -14.6334375 25.500625 -15 26 C-15.66 26 -16.32 26 -17 26 C-17.33 26.99 -17.66 27.98 -18 29 C-18.33 28.34 -18.66 27.68 -19 27 C-15.36810674 19.34196192 -10.39462529 12.49661525 -5 6 C-4.23236328 5.06607422 -4.23236328 5.06607422 -3.44921875 4.11328125 C-2.30844814 2.7347162 -1.1558214 1.36597074 0 0 Z " fill="#3457DA" transform="translate(32,41)"/>
<path d="M0 0 C0.33 0 0.66 0 1 0 C0.31694663 6.96545783 -1.2320898 13.59425631 -2.9375 20.375 C-3.20240234 21.46683594 -3.46730469 22.55867188 -3.74023438 23.68359375 C-3.99998047 24.72386719 -4.25972656 25.76414062 -4.52734375 26.8359375 C-4.76187256 27.78001465 -4.99640137 28.7240918 -5.23803711 29.69677734 C-6 32 -6 32 -8 34 C-7.67 28.72 -7.34 23.44 -7 18 C-6.01 17.67 -5.02 17.34 -4 17 C-4.061875 15.4840625 -4.061875 15.4840625 -4.125 13.9375 C-3.99426157 9.81923948 -3.26749214 6.88169467 -2 3 C-1.34 3 -0.68 3 0 3 C0 2.01 0 1.02 0 0 Z " fill="#514DDD" transform="translate(415,269)"/>
<path d="M0 0 C0.66 0 1.32 0 2 0 C-0.65148877 9.13743824 -6.73336426 16.95003479 -13 24 C-13.98120464 20.94736336 -13.98120464 19.05263664 -13 16 C-11.68 16 -10.36 16 -9 16 C-8.82984375 15.36191406 -8.6596875 14.72382812 -8.484375 14.06640625 C-8.24203125 13.24011719 -7.9996875 12.41382813 -7.75 11.5625 C-7.51796875 10.73878906 -7.2859375 9.91507813 -7.046875 9.06640625 C-6 7 -6 7 -3.890625 6.21484375 C-2.95476563 6.10849609 -2.95476563 6.10849609 -2 6 C-2 4.68 -2 3.36 -2 2 C-1.34 2 -0.68 2 0 2 C0 1.34 0 0.68 0 0 Z " fill="#872DE4" transform="translate(1008,956)"/>
<path d="M0 0 C0.92386708 3.46450154 1.29431388 6.39465502 1 10 C0.55527344 10.70640625 0.11054687 11.4128125 -0.34765625 12.140625 C-2.50554805 15.87484911 -3.5396554 19.6754045 -4.6875 23.8125 C-4.91244141 24.60076172 -5.13738281 25.38902344 -5.36914062 26.20117188 C-5.91921595 28.13228739 -6.46050006 30.06590336 -7 32 C-7.33 32 -7.66 32 -8 32 C-7.38929869 24.36623368 -5.20292054 17.31043259 -3 10 C-2.69320312 8.96875 -2.38640625 7.9375 -2.0703125 6.875 C-1.38616242 4.58146831 -0.69644368 2.28982239 0 0 Z " fill="#5F2FD2" transform="translate(666,689)"/>
<path d="M0 0 C1.32 0.33 2.64 0.66 4 1 C3.67 1.99 3.34 2.98 3 4 C0.39042873 5.2384406 -2.10724855 6.27487874 -4.8125 7.25 C-5.53759766 7.53101563 -6.26269531 7.81203125 -7.00976562 8.1015625 C-12.49049465 10.12737634 -12.49049465 10.12737634 -17 9 C-14.03 8.34 -11.06 7.68 -8 7 C-8 6.34 -8 5.68 -8 5 C-7.34 5 -6.68 5 -6 5 C-6 4.34 -6 3.68 -6 3 C-4.35 3 -2.7 3 -1 3 C-0.67 2.01 -0.34 1.02 0 0 Z " fill="#842DDF" transform="translate(950,1009)"/>
<path d="M0 0 C1.8746854 2.8120281 2.51369289 4.464468 3.2890625 7.66796875 C3.50820313 8.56064453 3.72734375 9.45332031 3.953125 10.37304688 C4.17484375 11.30181641 4.3965625 12.23058594 4.625 13.1875 C4.85445313 14.12787109 5.08390625 15.06824219 5.3203125 16.03710938 C5.88552569 18.35683851 6.44519925 20.67776258 7 23 C6.34 23.33 5.68 23.66 5 24 C3.68 19.38 2.36 14.76 1 10 C0.34 10.66 -0.32 11.32 -1 12 C-0.67 8.04 -0.34 4.08 0 0 Z " fill="#4B44CA" transform="translate(458,324)"/>
<path d="M0 0 C1.11346788 2.80033839 1.03510273 3.90143703 0.00390625 6.796875 C-0.47175781 7.77140625 -0.94742188 8.7459375 -1.4375 9.75 C-1.91058594 10.73484375 -2.38367188 11.7196875 -2.87109375 12.734375 C-3.24363281 13.48203125 -3.61617187 14.2296875 -4 15 C-4.66 15 -5.32 15 -6 15 C-6.3669579 8.51707705 -6.3669579 8.51707705 -4.625 6.0625 C-3 5 -3 5 -1 5 C-0.67 3.35 -0.34 1.7 0 0 Z " fill="#862AE2" transform="translate(1016,939)"/>
<path d="M0 0 C1.616332 3.23266399 0.07667545 6.34480315 -0.8125 9.6875 C-0.99103516 10.38294922 -1.16957031 11.07839844 -1.35351562 11.79492188 C-2.4974406 16.21782313 -3.7290518 20.61206571 -5 25 C-5.33 25 -5.66 25 -6 25 C-6.28913783 19.60276041 -5.82114744 15.91943576 -3.7265625 10.95703125 C-2.64963095 8.056264 -2.42741099 5.05293561 -2 2 C-1.34 1.34 -0.68 0.68 0 0 Z " fill="#F5E4FE" transform="translate(667,681)"/>
<path d="M0 0 C6.79149911 8.08511799 6.34731311 16.00510063 6 26 C5.67 26 5.34 26 5 26 C4.80543295 24.04235617 4.61955753 22.08384679 4.4375 20.125 C4.28087891 18.48917969 4.28087891 18.48917969 4.12109375 16.8203125 C4 14 4 14 5 12 C4.34 11.67 3.68 11.34 3 11 C3.33 10.01 3.66 9.02 4 8 C3.01 7.67 2.02 7.34 1 7 C0.67 4.69 0.34 2.38 0 0 Z " fill="#FDF0FE" transform="translate(800,462)"/>
<path d="M0 0 C0.33 0.99 0.66 1.98 1 3 C2.65 3.33 4.3 3.66 6 4 C5.34 7.63 4.68 11.26 4 15 C1.4785724 9.9571448 0 5.66021426 0 0 Z " fill="#5A34CD" transform="translate(607,669)"/>
<path d="M0 0 C0.33 0 0.66 0 1 0 C1.33 2.64 1.66 5.28 2 8 C1.34 8 0.68 8 0 8 C0.020625 8.804375 0.04125 9.60875 0.0625 10.4375 C0 13 0 13 -1 14 C-1.23192865 15.51469448 -1.41215238 17.03754562 -1.5625 18.5625 C-1.64628906 19.38878906 -1.73007812 20.21507813 -1.81640625 21.06640625 C-1.87699219 21.70449219 -1.93757812 22.34257813 -2 23 C-2.33 23 -2.66 23 -3 23 C-3.38750039 14.7763806 -2.58716898 7.8231062 0 0 Z " fill="#3052D6" transform="translate(4,91)"/>
<path d="M0 0 C0.66 0.33 1.32 0.66 2 1 C1.67 1.66 1.34 2.32 1 3 C0.34 3 -0.32 3 -1 3 C-1 3.99 -1 4.98 -1 6 C-1.928125 6.268125 -2.85625 6.53625 -3.8125 6.8125 C-6.76240366 7.91148371 -8.05615186 8.62418561 -10 11 C-10.66 10.67 -11.32 10.34 -12 10 C-10.71372289 8.82739389 -9.42080217 7.6620717 -8.125 6.5 C-7.40570313 5.8503125 -6.68640625 5.200625 -5.9453125 4.53125 C-4 3 -4 3 -2 3 C-2 2.34 -2 1.68 -2 1 C-1.34 0.67 -0.68 0.34 0 0 Z " fill="#3558D8" transform="translate(53,22)"/>
<path d="M0 0 C0 3.36403475 -0.61880053 4.40092917 -2.375 7.1875 C-2.81585937 7.90292969 -3.25671875 8.61835937 -3.7109375 9.35546875 C-4.13632812 9.89816406 -4.56171875 10.44085938 -5 11 C-5.66 11 -6.32 11 -7 11 C-7.33 11.99 -7.66 12.98 -8 14 C-8.33 13.34 -8.66 12.68 -9 12 C-6.60168569 7.11112852 -3.99824088 3.66505414 0 0 Z " fill="#3A5EE6" transform="translate(22,56)"/>
<path d="M0 0 C0.33 0.66 0.66 1.32 1 2 C-11.35652174 7.54782609 -11.35652174 7.54782609 -16 6 C-10.71169451 3.84705349 -5.44876003 1.72066106 0 0 Z " fill="#3454D5" transform="translate(91,4)"/>
<path d="M0 0 C5.63414634 1.79268293 5.63414634 1.79268293 7.875 3.0625 C11.15638617 4.51017037 14.44043389 4.64404339 18 5 C18 5.33 18 5.66 18 6 C12.06 6.495 12.06 6.495 6 7 C5.67 6.01 5.34 5.02 5 4 C3.35857037 2.9590934 1.69287785 1.95495674 0 1 C0 0.67 0 0.34 0 0 Z " fill="#574CD9" transform="translate(237,529)"/>
<path d="M0 0 C2.31 0.33 4.62 0.66 7 1 C4.11586541 3.88413459 0.90770251 3.84565627 -3 4 C-5.39057405 3.81162456 -7.63740834 3.44298594 -10 3 C-10 2.67 -10 2.34 -10 2 C-6.7 1.67 -3.4 1.34 0 1 C0 0.67 0 0.34 0 0 Z " fill="#5F54E1" transform="translate(334,475)"/>
<path d="M0 0 C0.33 0 0.66 0 1 0 C1.66 6.27 2.32 12.54 3 19 C2.01 18.34 1.02 17.68 0 17 C-0.2208564 14.04935852 -0.28060989 11.31631769 -0.1875 8.375 C-0.17396484 7.57320312 -0.16042969 6.77140625 -0.14648438 5.9453125 C-0.11109051 3.96325622 -0.05728234 1.98154449 0 0 Z " fill="#DDD3FE" transform="translate(0,909)"/>
<path d="M0 0 C0.33 0.66 0.66 1.32 1 2 C3.64 2 6.28 2 9 2 C9 2.33 9 2.66 9 3 C4.38 3.33 -0.24 3.66 -5 4 C-5.33 3.34 -5.66 2.68 -6 2 C-4.02 1.34 -2.04 0.68 0 0 Z " fill="#4746D7" transform="translate(455,197)"/>
<path d="M0 0 C0.99 0.33 1.98 0.66 3 1 C3 6.94 3 12.88 3 19 C2.67 19 2.34 19 2 19 C1.34 12.73 0.68 6.46 0 0 Z " fill="#EEDBFE" transform="translate(1021,94)"/>
<path d="M0 0 C3 3.625 3 3.625 3 7 C2.34 7 1.68 7 1 7 C0.67 7.66 0.34 8.32 0 9 C-0.99 9.495 -0.99 9.495 -2 10 C-1.125 2.25 -1.125 2.25 0 0 Z " fill="#6939E2" transform="translate(674,660)"/>
<path d="M0 0 C0.33 0 0.66 0 1 0 C1.21192221 5.19209404 0.5912689 9.126739 -1 14 C-1.33 14 -1.66 14 -2 14 C-3.55577239 8.34264585 -2.24281523 5.20333134 0 0 Z " fill="#EEDFFC" transform="translate(701,555)"/>
<path d="M0 0 C0.66 0.33 1.32 0.66 2 1 C-0.36551942 3.73902249 -2.54857221 4.93170092 -6 6 C-8.8125 6.125 -8.8125 6.125 -11 6 C-8.88613536 3.88613536 -7.20732397 3.02991678 -4.5 1.8125 C-3.7059375 1.44769531 -2.911875 1.08289063 -2.09375 0.70703125 C-1.4028125 0.47371094 -0.711875 0.24039063 0 0 Z " fill="#F7E0FE" transform="translate(954,1011)"/>
<path d="M0 0 C6.09781001 -0.22084624 11.21642935 -0.01167675 17 2 C15.375 3.125 15.375 3.125 13 4 C10.1875 3.1875 10.1875 3.1875 7 2 C4.67305036 1.62468554 2.34023315 1.28082798 0 1 C0 0.67 0 0.34 0 0 Z " fill="#4F36CF" transform="translate(912,1)"/>
<path d="M0 0 C0.66 0.99 1.32 1.98 2 3 C2.66 3 3.32 3 4 3 C3.6875 4.9375 3.6875 4.9375 3 7 C2.01 7.33 1.02 7.66 0 8 C-1.20882096 10.00016466 -1.20882096 10.00016466 -2 12 C-1.44687265 7.97007218 -0.8441938 3.97977076 0 0 Z " fill="#4A42DB" transform="translate(456,336)"/>
<path d="M0 0 C0.66 0 1.32 0 2 0 C1.34 4.29 0.68 8.58 0 13 C-0.33 13 -0.66 13 -1 13 C-1.02686553 11.02090602 -1.04633375 9.04171029 -1.0625 7.0625 C-1.07410156 5.96035156 -1.08570312 4.85820313 -1.09765625 3.72265625 C-1 1 -1 1 0 0 Z " fill="#E1F0FE" transform="translate(1,94)"/>
<path d="M0 0 C2.68666139 5.1814184 4.27625249 9.06057157 4 15 C0.89809455 10.34714182 -0.33846504 5.58467324 0 0 Z " fill="#4E3DCD" transform="translate(523,350)"/>
<path d="M0 0 C0.95714735 2.87144204 1.07960729 4.09945581 0.75 7 C0.68296875 7.680625 0.6159375 8.36125 0.546875 9.0625 C-0.11805414 11.41824897 -1.1674163 12.42358391 -3 14 C-2.58846263 9.02906176 -2.20399168 4.55491614 0 0 Z " fill="#493DCF" transform="translate(449,363)"/>
<path d="M0 0 C-2.31 1.65 -4.62 3.3 -7 5 C-7.66 4.67 -8.32 4.34 -9 4 C-6.56225426 0.2214941 -6.56225426 0.2214941 -3.9375 -0.8125 C-2 -1 -2 -1 0 0 Z " fill="#7F2DDE" transform="translate(967,1004)"/>
<path d="M0 0 C1 2 1 2 0.22265625 4.3828125 C-0.16019531 5.28773438 -0.54304688 6.19265625 -0.9375 7.125 C-1.31777344 8.03507812 -1.69804687 8.94515625 -2.08984375 9.8828125 C-2.39019531 10.58148438 -2.69054687 11.28015625 -3 12 C-3.66 12 -4.32 12 -5 12 C-3.68938409 7.76570244 -2.05643741 3.92592596 0 0 Z " fill="#5346D3" transform="translate(417,476)"/>
<path d="M0 0 C0.99 0.33 1.98 0.66 3 1 C0.69 3.31 -1.62 5.62 -4 8 C-4.33 7.01 -4.66 6.02 -5 5 C-4.01 4.67 -3.02 4.34 -2 4 C-0.79117904 1.99983534 -0.79117904 1.99983534 0 0 Z " fill="#D8E5FE" transform="translate(37,33)"/>
<path d="M0 0 C1.08892712 2.83121051 0.96109941 4.16532751 0.25 7.1875 C-0.36875 8.5796875 -0.36875 8.5796875 -1 10 C-1.99 10.33 -2.98 10.66 -4 11 C-3.52269162 9.5410574 -3.04308958 8.08286504 -2.5625 6.625 C-2.29566406 5.81289063 -2.02882813 5.00078125 -1.75390625 4.1640625 C-1 2 -1 2 0 0 Z " fill="#F7DFFE" transform="translate(1016,943)"/>
<path d="M0 0 C1.9375 0.3125 1.9375 0.3125 4 1 C5.09658936 4.28976808 4.79953138 5.71303767 4 9 C1.3144406 6.3144406 0.93950026 3.62378672 0 0 Z " fill="#4B44DA" transform="translate(487,219)"/>
<path d="M0 0 C0.99 0.33 1.98 0.66 3 1 C-1.5 5.875 -1.5 5.875 -6 7 C-4.02 4.69 -2.04 2.38 0 0 Z " fill="#8335DB" transform="translate(975,995)"/>
<path d="M0 0 C0.66 0 1.32 0 2 0 C0.90931332 3.77545388 0.0916909 6.47043472 -3 9 C-2.67 6.69 -2.34 4.38 -2 2 C-1.34 2 -0.68 2 0 2 C0 1.34 0 0.68 0 0 Z " fill="#822CDB" transform="translate(1008,956)"/>
<path d="M0 0 C2.32472205 2.85306797 3.7508258 5.54074837 5 9 C3.0625 8.4375 3.0625 8.4375 1 7 C0.25 3.375 0.25 3.375 0 0 Z " fill="#F4E3FE" transform="translate(800,462)"/>
<path d="M0 0 C0.75 1.625 0.75 1.625 1 4 C-0.9375 7.25 -0.9375 7.25 -3 10 C-4 7 -4 7 -3.22265625 5.17578125 C-2.1484375 3.45052083 -1.07421875 1.72526042 0 0 Z " fill="#ECEDFF" transform="translate(432,216)"/>
<path d="M0 0 C0.33 0 0.66 0 1 0 C1.75 3.1875 1.75 3.1875 2 7 C0.0625 9.9375 0.0625 9.9375 -2 12 C-1.34 8.04 -0.68 4.08 0 0 Z " fill="#F4E5FE" transform="translate(642,570)"/>
<path d="M0 0 C2.29633824 3.44450737 2.54016485 5.93812283 3 10 C0.11192273 7.61419704 -0.61954948 5.70939253 -1 2 C-0.67 1.34 -0.34 0.68 0 0 Z " fill="#F5E8FE" transform="translate(580,573)"/>
<path d="M0 0 C0.33 0.66 0.66 1.32 1 2 C0.2575 2.144375 -0.485 2.28875 -1.25 2.4375 C-3.52027739 2.90187492 -5.75759479 3.41863569 -8 4 C-8.33 3.34 -8.66 2.68 -9 2 C-5.86501708 0.14223235 -3.62528568 -0.20140476 0 0 Z " fill="#F1E1FE" transform="translate(729,507)"/>
<path d="M0 0 C2 3.75 2 3.75 2 6 C0.68 6.33 -0.64 6.66 -2 7 C-1.125 1.125 -1.125 1.125 0 0 Z " fill="#6158FB" transform="translate(459,333)"/>
<path d="M0 0 C0.7425 0.0825 1.485 0.165 2.25 0.25 C1.26 0.745 1.26 0.745 0.25 1.25 C0.25 1.91 0.25 2.57 0.25 3.25 C-2.06 3.58 -4.37 3.91 -6.75 4.25 C-3.42692308 0.31153846 -3.42692308 0.31153846 0 0 Z " fill="#E3EEFC" transform="translate(100.75,-0.25)"/>
</svg>
